solid model
facet normal 1.0 -0.0 -0.0
outer loop
vertex -7.21911419532262e-013 -1262.64701633172 1987.7511520436
vertex -7.21911419532262e-013 -1291.53890079796 2361.35388027265
vertex -7.21911419532262e-013 -1301.68582470325 2172.65067178313
endloop
endfacet
facet normal 1.0 -0.0 -0.0
outer loop
vertex -7.21911419532262e-013 -1291.53890079796 2361.35388027265
vertex -7.21911419532262e-013 -1262.64701633172 1987.7511520436
vertex -7.21911419532262e-013 -1232.89774071141 2541.0009657004
endloop
endfacet
facet normal 1.0 -0.0 -0.0
outer loop
vertex -7.21911419532262e-013 -1232.89774071141 2541.0009657004
vertex -7.21911419532262e-013 -1262.64701633172 1987.7511520436
vertex -7.21911419532262e-013 -1177.08290595921 1819.2559177634
endloop
endfacet
facet normal 1.0 -0.0 -0.0
outer loop
vertex -7.21911419532262e-013 -1232.89774071141 2541.0009657004
vertex -7.21911419532262e-013 -1177.08290595921 1819.2559177634
vertex -7.21911419532262e-013 -1129.7586425944 2699.34927607531
endloop
endfacet
facet normal 1.0 -0.0 -0.0
outer loop
vertex -7.21911419532262e-013 -1129.7586425944 2699.34927607531
vertex -7.21911419532262e-013 -1177.08290595921 1819.2559177634
vertex -7.21911419532262e-013 -1050.82454630622 1678.64764070718
endloop
endfacet
facet normal 1.0 -0.0 -0.0
outer loop
vertex -7.21911419532262e-013 -1129.7586425944 2699.34927607531
vertex -7.21911419532262e-013 -1050.82454630622 1678.64764070718
vertex -7.21911419532262e-013 -989.150365538185 2825.6076357283
endloop
endfacet
facet normal 1.0 -0.0 -0.0
outer loop
vertex -7.21911419532262e-013 -989.150365538185 2825.6076357283
vertex -7.21911419532262e-013 -1050.82454630622 1678.64764070718
vertex -7.21911419532262e-013 -892.476235931312 1575.50854259017
endloop
endfacet
facet normal 1.0 -0.0 -0.0
outer loop
vertex -7.21911419532262e-013 -989.150365538185 2825.6076357283
vertex -7.21911419532262e-013 -892.476235931312 1575.50854259017
vertex -7.21911419532262e-013 -820.655131257984 2911.17174610081
endloop
endfacet
facet normal 1.0 -0.0 -0.0
outer loop
vertex -7.21911419532262e-013 -820.655131257984 2911.17174610081
vertex -7.21911419532262e-013 -892.476235931312 1575.50854259017
vertex -7.21911419532262e-013 -712.829150503568 1516.86738250362
endloop
endfacet
facet normal 1.0 -0.0 -0.0
outer loop
vertex -7.21911419532262e-013 -820.655131257984 2911.17174610081
vertex -7.21911419532262e-013 -712.829150503568 1516.86738250362
vertex -7.21911419532262e-013 -635.755611518449 2950.21055447234
endloop
endfacet
facet normal 1.0 -0.0 -0.0
outer loop
vertex -7.21911419532262e-013 -635.755611518449 2950.21055447234
vertex -7.21911419532262e-013 -712.829150503568 1516.86738250362
vertex -7.21911419532262e-013 -524.125942014047 1506.72045859833
endloop
endfacet
facet normal 1.0 -0.0 -0.0
outer loop
vertex -7.21911419532262e-013 -635.755611518449 2950.21055447234
vertex -7.21911419532262e-013 -524.125942014047 1506.72045859833
vertex -7.21911419532262e-013 -447.052403028928 2940.06363056705
endloop
endfacet
facet normal 1.0 -0.0 -0.0
outer loop
vertex -7.21911419532262e-013 -447.052403028928 2940.06363056705
vertex -7.21911419532262e-013 -524.125942014047 1506.72045859833
vertex -7.21911419532262e-013 -339.226422274512 1545.75926696986
endloop
endfacet
facet normal 1.0 -0.0 -0.0
outer loop
vertex -7.21911419532262e-013 -447.052403028928 2940.06363056705
vertex -7.21911419532262e-013 -339.226422274512 1545.75926696986
vertex -7.21911419532262e-013 -267.405317601184 2881.4224704805
endloop
endfacet
facet normal 1.0 -0.0 -0.0
outer loop
vertex -7.21911419532262e-013 -267.405317601184 2881.4224704805
vertex -7.21911419532262e-013 -339.226422274512 1545.75926696986
vertex -7.21911419532262e-013 -170.73118799431 1631.32337734237
endloop
endfacet
facet normal 1.0 -0.0 -0.0
outer loop
vertex -7.21911419532262e-013 -267.405317601184 2881.4224704805
vertex -7.21911419532262e-013 -170.73118799431 1631.32337734237
vertex -7.21911419532262e-013 -109.057007226272 2778.28337236349
endloop
endfacet
facet normal 1.0 -0.0 -0.0
outer loop
vertex -7.21911419532262e-013 -109.057007226272 2778.28337236349
vertex -7.21911419532262e-013 -170.73118799431 1631.32337734237
vertex -7.21911419532262e-013 -30.1229109380963 1757.58173699536
endloop
endfacet
facet normal 1.0 -0.0 -0.0
outer loop
vertex -7.21911419532262e-013 -109.057007226272 2778.28337236349
vertex -7.21911419532262e-013 -30.1229109380963 1757.58173699536
vertex -7.21911419532262e-013 17.2013524267122 2637.67509530727
endloop
endfacet
facet normal 1.0 -0.0 -0.0
outer loop
vertex -7.21911419532262e-013 17.2013524267122 2637.67509530727
vertex -7.21911419532262e-013 -30.1229109380963 1757.58173699536
vertex -7.21911419532262e-013 73.0161871789137 1915.93004737027
endloop
endfacet
facet normal 1.0 -0.0 -0.0
outer loop
vertex -7.21911419532262e-013 17.2013524267122 2637.67509530727
vertex -7.21911419532262e-013 73.0161871789137 1915.93004737027
vertex -7.21911419532262e-013 102.765462799224 2469.17986102707
endloop
endfacet
facet normal 1.0 -0.0 -0.0
outer loop
vertex -7.21911419532262e-013 102.765462799224 2469.17986102707
vertex -7.21911419532262e-013 73.0161871789137 1915.93004737027
vertex -7.21911419532262e-013 131.657347265463 2095.57713279801
endloop
endfacet
facet normal 1.0 -0.0 -0.0
outer loop
vertex -7.21911419532262e-013 102.765462799224 2469.17986102707
vertex -7.21911419532262e-013 131.657347265463 2095.57713279801
vertex -7.21911419532262e-013 141.804271170754 2284.28034128754
endloop
endfacet
endsolid model
